<svg xmlns="http://www.w3.org/2000/svg" fill="none" viewBox="0 0 141 35"><path fill="#4A9079" d="M123.5.922h4.078L140.375 35h-6.023l-8.813-25.383L116.727 35h-6.024L123.5.922Zm-6.773 22.242h17.929v5.367h-17.929v-5.367Zm-57.922-2.297L73.148.922h6.985L58.852 28.625l-.047-7.758ZM54.985.922h5.6V35h-5.6V.922Zm9.492 16.36 4.64-3.493L81.562 35h-6.726l-10.36-17.719Zm23.087 12.35h7.946c2.312 0 4.101-.577 5.367-1.734 1.281-1.156 1.922-2.796 1.922-4.921V12.945c0-2.125-.641-3.765-1.922-4.922-1.266-1.156-3.055-1.734-5.367-1.734h-7.946V.922h7.805c2.781 0 5.156.476 7.125 1.43 1.984.953 3.492 2.343 4.523 4.171 1.032 1.829 1.547 4.032 1.547 6.61v9.656c0 2.516-.507 4.688-1.523 6.516-1.016 1.828-2.516 3.234-4.5 4.218-1.969.985-4.367 1.477-7.195 1.477h-7.782v-5.367ZM84.33.923h5.602V35H84.33V.922Z"/><path fill="#fff" d="M.219.922h4.078V35H.219V.922Zm2.32 30.234h19.57V35H2.54v-3.844Zm0-15h16.992V20H2.54v-3.844Zm0-15.234h19.57v3.844H2.54V.922ZM46.3 4.227 30.48 31.273h16.288V35H25.58v-3.305L41.54 4.648H26.003V.922H46.3v3.305Z"/></svg>